<svg width="256" height="256" viewBox="-66 -66 396 396" fill="none" xmlns="http://www.w3.org/2000/svg">
<path d="M265 132.5C265 59.3223 205.678 0 132.5 0C59.3223 0 0 59.3223 0 132.5C0 205.678 59.3223 265 132.5 265C205.678 265 265 205.678 265 132.5Z" fill="#FF1D25"/>
<path d="M192.78 96H143.95C142.321 96 140.708 96.321 139.203 96.9448C137.697 97.5686 136.33 98.4829 135.178 99.6354C134.027 100.788 133.114 102.156 132.491 103.662C131.869 105.167 131.549 106.781 131.55 108.41V151.82H87.2001C85.8554 151.824 84.5233 151.562 83.2798 151.051C82.0364 150.539 80.9062 149.787 79.954 148.837C79.0018 147.888 78.2464 146.76 77.7309 145.518C77.2154 144.276 76.9501 142.945 76.9501 141.6V123.4C76.9501 122.058 77.2144 120.729 77.728 119.489C78.2416 118.249 78.9944 117.122 79.9434 116.173C80.8924 115.224 82.0191 114.472 83.259 113.958C84.499 113.444 85.8279 113.18 87.17 113.18H119.95V96H70.0301C67.3187 96 64.7181 97.0764 62.7999 98.9927C60.8817 100.909 59.8027 103.509 59.8 106.22V158.78C59.8027 161.491 60.8817 164.091 62.7999 166.007C64.7181 167.924 67.3187 169 70.0301 169H148.75V149.37H188.01V169H205.19V108.41C205.191 106.78 204.871 105.166 204.248 103.659C203.625 102.153 202.711 100.785 201.558 99.6319C200.406 98.4793 199.037 97.5652 197.531 96.942C196.024 96.3188 194.41 95.9987 192.78 96ZM188.01 132.19H148.75V125.58C148.753 122.29 150.061 119.136 152.388 116.811C154.715 114.486 157.87 113.18 161.16 113.18H175.61C178.899 113.18 182.053 114.486 184.378 116.812C186.704 119.137 188.01 122.291 188.01 125.58V132.19Z" fill="#F2F2F2"/>
</svg>
